<svg width="405" height="405" viewBox="0 0 405 405" fill="none" xmlns="http://www.w3.org/2000/svg">
<path d="M127.03 277.004C128.832 277.004 130.635 277.694 132.014 279.059C170.455 317.486 232.974 317.486 271.415 279.059C274.161 276.314 278.625 276.314 281.371 279.059C284.116 281.805 284.116 286.269 281.371 289.015C237.452 332.919 165.978 332.919 122.059 289.015C119.314 286.269 119.314 281.805 122.059 279.059C123.425 277.694 125.228 277.004 127.03 277.004Z" fill="white"/>
<path d="M202.5 404.5C91.1143 404.5 0.5 313.886 0.5 202.5C0.5 91.1143 91.1143 0.5 202.5 0.5C313.886 0.5 404.5 91.1143 404.5 202.5C404.5 313.886 313.886 404.5 202.5 404.5ZM202.5 16.375C99.877 16.375 16.375 99.877 16.375 202.5C16.375 305.123 99.877 388.625 202.5 388.625C305.123 388.625 388.625 305.123 388.625 202.5C388.625 99.877 305.123 16.375 202.5 16.375Z" fill="white" stroke="white"/>
<circle cx="283" cy="138" r="32" fill="white"/>
<circle cx="120" cy="138" r="32" fill="white"/>
</svg>
