<svg width="247" height="238" viewBox="0 0 247 238" fill="none" xmlns="http://www.w3.org/2000/svg">
<path opacity="0.07109" fill-rule="evenodd" clip-rule="evenodd" d="M109.566 225.541C106.606 224.64 103.574 223.996 100.503 223.615L88.9212 222.176C71.489 220.012 56.1992 209.503 47.9312 194.005L42.4377 183.707C40.9814 180.977 39.2931 178.377 37.3914 175.936L30.2185 166.73C19.4228 152.873 16.0418 134.63 21.1546 117.825L24.5516 106.659C25.4522 103.699 26.0967 100.667 26.478 97.596L27.9162 86.0137C30.0809 68.5816 40.5893 53.2917 56.0879 45.0237L66.3855 39.5303C69.1155 38.0739 71.7152 36.3856 74.1561 34.484L83.363 27.3111C97.22 16.5153 115.462 13.1343 132.268 18.2471L143.434 21.6442C146.394 22.5448 149.426 23.1893 152.497 23.5706L164.079 25.0088C181.511 27.1734 196.801 37.6819 205.069 53.1805L210.562 63.478C212.019 66.208 213.707 68.8081 215.609 71.249C218.208 74.5846 220.542 77.5804 222.782 80.4568C233.578 94.3138 236.958 112.555 231.845 129.36L228.448 140.526C227.548 143.486 226.903 146.519 226.522 149.589L225.084 161.171C222.919 178.604 212.411 193.893 196.912 202.161L186.615 207.655C183.885 209.111 181.285 210.8 178.844 212.701L169.637 219.874C155.78 230.67 137.538 234.051 120.732 228.938L109.566 225.541Z" fill="#B472FF"/>
<path fill-rule="evenodd" clip-rule="evenodd" d="M128.116 216.62L107.299 219.888C94.1835 221.946 80.8867 217.497 71.6516 207.96L56.9926 192.822C55.3659 191.142 53.5978 189.605 51.7079 188.228L34.6768 175.819C23.9473 168.001 17.691 155.452 17.9045 142.179L18.2434 121.109C18.281 118.771 18.1176 116.434 17.7549 114.123L14.487 93.3058C12.4282 80.1908 16.8772 66.894 26.4143 57.6589L41.5525 42.9999C43.2324 41.3732 44.7694 39.6051 46.1465 37.7152L58.556 20.6841C66.3739 9.95459 78.9221 3.69827 92.196 3.91177L113.266 4.25068C115.604 4.28828 117.941 4.12486 120.251 3.76221L141.069 0.494254C154.184 -1.56454 167.481 2.88452 176.716 12.4215L191.375 27.5598C193.001 29.2397 194.77 30.7767 196.659 32.1538L213.691 44.5633C224.42 52.3812 230.676 64.9294 230.463 78.2033L230.124 99.2732C230.086 101.611 230.25 103.948 230.612 106.258L233.88 127.076C235.939 140.191 231.49 153.488 221.953 162.723L206.815 177.382C205.135 179.009 203.598 180.777 202.221 182.667L189.811 199.698C181.993 210.427 169.445 216.684 156.171 216.47L135.101 216.131C132.763 216.094 130.426 216.257 128.116 216.62Z" fill="#3F90F6"/>
<rect x="174.076" y="56.4019" width="3.00866" height="24.795" rx="1.50433" fill="#7A7A7A"/>
<rect x="75.0518" y="10" width="100.648" height="204.551" rx="15" fill="#7A7A7A"/>
<path d="M161.691 15.3279H150.145V16.7168C150.145 18.4627 149.452 20.1371 148.217 21.3714C146.982 22.6056 145.307 23.2985 143.561 23.2976H106.844C105.098 23.2985 103.423 22.6056 102.188 21.3714C100.953 20.1371 100.26 18.4627 100.26 16.7168V15.3279H89.4498C85.0351 15.3279 81.4563 18.9067 81.4563 23.3214V201.244C81.4563 205.659 85.0351 209.237 89.4498 209.237H161.691C166.105 209.237 169.684 205.659 169.684 201.244V23.3351C169.688 21.2127 168.847 19.176 167.348 17.674C165.848 16.172 163.813 15.3279 161.691 15.3279Z" fill="white"/>
<rect x="115.667" y="16.1087" width="14.0546" height="2.8524" rx="1.4262" fill="#E6E8EC"/>
<circle cx="133.467" cy="17.5351" r="1.61982" fill="#E6E8EC"/>
<circle cx="125.99" cy="114.787" r="19.0396" fill="white"/>
<path fill-rule="evenodd" clip-rule="evenodd" d="M151.033 112.128C151.032 126.182 139.639 137.575 125.585 137.575C111.531 137.574 100.138 126.181 100.138 112.127C100.139 98.0726 111.532 86.6799 125.586 86.6804C132.335 86.6806 138.808 89.3618 143.58 94.1342C148.352 98.9067 151.033 105.379 151.033 112.128ZM122.645 125.598L141.521 106.722C141.83 106.414 142.003 105.996 142.003 105.56C142.003 105.125 141.83 104.707 141.521 104.399L139.199 102.093C138.891 101.785 138.474 101.612 138.039 101.612C137.604 101.612 137.186 101.785 136.879 102.093L121.484 117.489L114.295 110.284C113.652 109.645 112.615 109.645 111.972 110.284L109.65 112.62C109.011 113.263 109.011 114.3 109.65 114.943L120.323 125.612C120.63 125.92 121.048 126.094 121.484 126.094C121.92 126.094 122.338 125.92 122.645 125.612L122.645 125.598Z" fill="#3F90F6"/>
<rect x="77.3128" y="50.3263" width="1.51692" height="7.33775" rx="0.758459" fill="#7A7A7A"/>
<rect x="77.2578" y="63.7624" width="1.7093" height="12.7708" rx="0.854652" fill="#7A7A7A"/>
<rect x="77.2852" y="81.0018" width="1.62693" height="12.8805" rx="0.813466" fill="#7A7A7A"/>
<path d="M57.1248 115.062C57.2141 115.148 57.3495 115.166 57.4576 115.105C57.3452 115.107 57.2332 115.092 57.1248 115.062H57.1248Z" fill="url(#paint0_linear)"/>
<path d="M69.7033 119.982L69.3749 121.771L69.1215 123.139L68.6606 125.642L64.1919 128.771C64.1919 128.771 63.7891 128.426 63.1247 127.883C61.2933 126.375 57.4442 123.304 54.6178 121.656C53.8908 121.193 53.1042 120.83 52.2796 120.579L69.7033 119.982Z" fill="#FEB9B9"/>
<path d="M66.425 121.313C66.425 121.313 71.6353 122.208 71.9405 119.983C72.2456 117.757 69.2586 116.555 66.7272 116.405C64.1958 116.255 49.0025 117.3 49.0025 117.3C49.0025 117.3 46.3225 120.874 56.0015 121.472L66.425 121.313Z" fill="#7A7A7A"/>
<rect x="50.5624" y="47.8874" width="27.2569" height="32.3208" fill="#2F2E41"/>
<rect opacity="0.1" x="50.5624" y="48.0341" width="27.2569" height="32.3208" fill="#ED8306"/>
<path d="M18.6174 103.216C18.1686 103.329 17.595 103.764 16.957 104.391C14.21 107.111 10.2755 113.493 10.2755 113.493C5.24532 107.501 10.8116 102.767 13.1843 101.14C13.7612 100.747 14.1487 100.53 14.1487 100.53L18.6174 103.216Z" fill="#FEB9B9"/>
<path d="M69.4042 58.0882C69.4042 58.0882 70.7451 67.4711 75.3621 69.7053C79.9791 71.9394 69.4042 76.115 69.4042 76.115L54.9577 70.749C54.9577 70.749 63.1501 68.0671 61.5109 60.1727L69.4042 58.0882Z" fill="#FEB9B9"/>
<path d="M53.914 114.537L53.5872 116.32L53.3218 117.693L52.8609 120.196L48.3923 123.322C48.3923 123.322 47.9894 122.98 47.325 122.437C45.4936 120.929 41.6448 117.858 38.814 116.21C38.0874 115.746 37.3007 115.384 36.4758 115.133L53.914 114.537Z" fill="#FEB9B9"/>
<path d="M50.0485 116.736C50.0485 116.736 54.7246 116.769 55.0059 114.537C55.2872 112.306 52.4575 111.11 50.0485 110.96C47.6394 110.81 33.0022 111.924 33.0022 111.924C33.0022 111.924 30.9257 116.138 40.1325 116.735L50.0485 116.736Z" fill="#2F2E41"/>
<path d="M82.8342 151.79C82.6298 151.69 82.4251 151.586 82.2237 151.485L81.6742 150.792L74.4678 141.654V141.813C74.4191 143.339 73.9002 155.432 69.8527 156.549C65.5337 157.74 60.3235 158.039 57.9483 149.996C55.5732 141.953 51.2334 124.378 46.7768 123.334L53.4063 117.898C53.4063 117.898 57.7956 123.032 59.584 127.946C59.517 127.641 56.4859 113.479 58.9735 110.973H80.7229C80.7229 110.973 84.0805 120.536 86.3817 125.273C88.1734 128.951 90.8624 137.647 92.5939 143.532C94.3079 149.343 88.2856 154.473 82.8342 151.79Z" fill="#7A7A7A"/>
<path opacity="0.1" d="M82.2147 113.643C78.8571 115.63 64.1175 114.821 59.3224 114.497L58.0159 114.403C57.8755 114.403 58.0373 114.323 58.0373 114.323L58.1716 112.971L61.746 103.888L80.8838 92.7894C80.496 93.9585 80.368 95.7471 80.3986 97.7952C80.487 104.376 82.2147 113.643 82.2147 113.643Z" fill="#ED8306"/>
<path d="M82.2146 113.194C78.8571 115.181 64.1175 114.372 59.3224 114.049L58.0159 113.957L57.7992 113.939L58.0373 113.878L59.2154 113.573L61.7457 103.445L80.8835 92.3501C80.496 93.5192 80.3677 95.3079 80.3983 97.356C80.487 103.93 82.2146 113.194 82.2146 113.194Z" fill="#EFEFEF"/>
<path opacity="0.1" d="M80.3863 97.3497C76.4945 98.247 67.9299 100.88 64.6394 107.239C62.4449 111.473 60.5982 113.289 59.3101 114.049L58.0036 113.957C58.0122 113.931 58.0193 113.904 58.0249 113.878L59.2031 113.572L61.7334 103.445L80.8712 92.3501C80.4881 93.5129 80.3556 95.3016 80.3863 97.3497Z" fill="#ED8306"/>
<path opacity="0.1" d="M14.1487 100.536L18.6173 103.216C18.1685 103.33 17.5949 103.764 16.957 104.392C16.5846 103.305 14.2478 101.788 13.1843 101.141C13.7609 100.753 14.1487 100.536 14.1487 100.536Z" fill="#ED8306"/>
<path opacity="0.1" d="M57.2072 114.131C57.1068 114.184 56.9843 114.166 56.9021 114.089C57.0012 114.118 57.104 114.132 57.2072 114.131V114.131Z" fill="#ED8306"/>
<path fill-rule="evenodd" clip-rule="evenodd" d="M67.3197 69.11C67.3197 69.11 63.2968 69.5555 60.4674 66.5767C60.4674 66.5767 48.563 70.0043 44.5314 77.7479C40.4998 85.4915 13.0926 100.686 13.0926 100.686C13.0926 100.686 17.8604 103.366 17.4116 104.706L35.4354 94.2792C35.4354 94.2792 41.8451 89.6641 43.6248 88.6203C45.4044 87.5766 55.2448 81.1728 57.3296 98.5984C59.4143 116.024 57.3296 113.939 57.3296 113.939C57.3296 113.939 60.3087 114.983 64.6276 106.641C68.9466 98.299 82.3493 96.3639 82.3493 96.3639L83.0939 87.5793C83.0939 87.5793 85.7526 81.7555 83.7045 79.3382C83.084 78.6225 82.6713 77.7505 82.511 76.8169C82.1722 74.5858 82.511 70.868 87.2542 67.7792C94.5522 63.0114 97.3816 59.1413 97.3816 59.1413C97.3816 59.1413 97.5311 56.3088 93.0627 54.9687C88.5943 53.6286 70.4238 46.3308 70.4238 46.3308L69.8133 48.8641L84.15 58.9825C84.15 58.9825 77.0016 64.7817 71.3305 64.6414C71.3302 64.6414 72.3833 68.9603 67.3197 69.11Z" fill="#ED8306"/>
<path opacity="0.1" d="M70.0788 62.1721C69.7265 60.9782 69.4513 59.7629 69.2548 58.5337L61.3615 60.619C61.7095 62.1259 61.6473 63.6984 61.1814 65.1731C64.4808 66.0535 67.9866 64.871 70.0788 62.1721Z" fill="#ED8306"/>
<circle cx="63.5226" cy="56.5256" r="8.48851" fill="#FEB9B9"/>
<path opacity="0.1" d="M72.7557 124.887C72.7557 124.887 77.6699 134.569 76.1803 137.545Z" fill="#ED8306"/>
<path d="M68.0367 36.9206C70.3929 37.1893 72.6304 38.1994 74.9502 38.7519C75.53 38.9322 76.1473 38.9553 76.7389 38.819C77.6393 38.5412 78.3719 37.5982 79.3059 37.6255C79.8806 37.6439 80.3893 38.0347 80.8625 38.4099C81.6212 38.9906 82.3353 39.6273 82.999 40.3146C84.5983 42.0512 85.5903 44.3894 87.0492 46.2788C88.5081 48.1682 90.5888 50.3838 92.6612 49.5173C91.2513 55.0114 86.8538 58.4484 81.8575 58.7904C79.8644 58.9273 77.8223 58.5127 75.8933 59.0956C75.4128 59.2926 74.9054 59.416 74.3881 59.4617C73.2771 59.4617 72.3827 58.4423 71.6898 57.4503C70.0659 55.1184 68.781 52.4721 66.9527 50.3446C66.3421 49.6397 65.6372 48.9711 64.7825 48.843C63.9279 48.715 63.1436 49.1238 62.3836 49.5176C61.1291 50.1678 59.8473 50.8391 58.8736 51.9595C57.8999 53.0799 57.2863 54.7339 57.6892 56.2328C57.9059 57.0447 58.4007 57.7773 58.4094 58.6257C58.4278 59.9809 57.2313 60.9699 56.9962 62.2884C56.9432 62.8423 56.9238 63.3988 56.9382 63.955C56.8345 65.7612 55.652 67.239 54.4205 68.3777C53.9383 68.8172 53.408 69.2934 53.2668 69.974C53.1721 70.4409 53.2668 70.9318 53.2057 71.4055C53.0257 72.5776 51.8566 73.1728 50.8218 73.3255C49.6129 73.5045 48.3781 73.3581 47.2445 72.9014C48.6914 72.2172 49.5827 70.2704 49.2469 68.5274C48.7861 66.1098 46.3565 64.3732 46.565 61.9132C46.6792 61.1584 46.9056 60.4249 47.2366 59.737C47.766 58.4077 48.1508 57.0252 48.3843 55.6135C48.5674 54.5237 48.6561 53.367 48.314 52.3262C48.0088 51.3799 47.3709 50.6262 46.8304 49.8263C46.098 48.7381 45.5198 47.5538 45.1121 46.307C44.9644 45.9372 44.9081 45.5371 44.9479 45.1409C45.0703 44.6729 45.331 44.2527 45.6958 43.9351C47.0237 42.5395 48.4429 41.0904 50.2225 40.6906C51.0716 40.5496 51.9351 40.5168 52.7925 40.5929C54.2836 40.6396 55.7761 40.5764 57.2579 40.4035C58.4787 40.2601 60.5418 40.2784 61.5768 39.4878C62.5412 38.7489 63.0847 37.8212 64.2719 37.3513C65.4741 36.9057 66.7665 36.758 68.0383 36.9209L68.0367 36.9206Z" fill="#2F2E41"/>
<ellipse cx="225.762" cy="211.961" rx="12.3135" ry="2.08231" fill="#3F90F6"/>
<path fill-rule="evenodd" clip-rule="evenodd" d="M230.855 208.556C231.416 208.097 231.825 207.479 232.028 206.783C232.181 206.082 231.881 205.25 231.207 204.979C230.453 204.691 229.647 205.215 229.039 205.741C228.43 206.268 227.728 206.871 226.929 206.758C227.766 206.002 228.144 204.861 227.925 203.754C227.889 203.528 227.793 203.317 227.647 203.142C227.23 202.694 226.47 202.884 225.971 203.24C224.379 204.357 223.935 206.524 223.926 208.467C223.763 207.765 223.901 207.033 223.895 206.323C223.889 205.612 223.696 204.79 223.087 204.415C222.711 204.213 222.288 204.114 221.862 204.127C221.145 204.1 220.349 204.173 219.859 204.697C219.247 205.346 219.412 206.436 219.939 207.147C220.466 207.857 221.271 208.313 222.012 208.806C222.604 209.16 223.11 209.643 223.49 210.218C223.535 210.299 223.572 210.384 223.599 210.472H228.073C229.082 209.962 230.018 209.318 230.854 208.557L230.855 208.556Z" fill="#3F90F6"/>
<ellipse cx="58.3484" cy="213.588" rx="8.12618" ry="1.37434" fill="#EFEFEF"/>
<path d="M61.7093 211.341C62.0796 211.038 62.3494 210.63 62.4832 210.17C62.6046 209.696 62.3793 209.2 61.9416 208.98C61.4444 208.79 60.9129 209.136 60.5109 209.483C60.1089 209.831 59.6459 210.229 59.1185 210.154C59.6707 209.655 59.92 208.902 59.7753 208.172C59.7516 208.023 59.6881 207.883 59.5914 207.768C59.3177 207.473 58.8153 207.598 58.4861 207.832C57.4352 208.571 57.1421 209.998 57.1361 211.282C57.0291 210.819 57.12 210.336 57.1158 209.867C57.1117 209.399 56.9845 208.857 56.5822 208.609C56.3341 208.475 56.0553 208.41 55.7738 208.419C55.3009 208.401 54.7755 208.449 54.452 208.795C54.0478 209.223 54.157 209.943 54.5045 210.411C54.8521 210.88 55.3836 211.182 55.8729 211.506C56.264 211.739 56.5976 212.057 56.849 212.437C56.8793 212.49 56.9037 212.546 56.9218 212.604H59.8744C60.5401 212.267 61.1573 211.841 61.7093 211.339V211.341Z" fill="#EFEFEF"/>
<ellipse cx="12.3915" cy="213.588" rx="8.12618" ry="1.37434" fill="#EFEFEF"/>
<path d="M15.7524 211.341C16.1227 211.038 16.3925 210.63 16.5263 210.17C16.6477 209.696 16.4223 209.2 15.9847 208.98C15.4874 208.79 14.956 209.136 14.554 209.483C14.152 209.831 13.6889 210.229 13.1616 210.154C13.7137 209.655 13.9631 208.902 13.8184 208.172C13.7947 208.023 13.7311 207.883 13.6345 207.768C13.3608 207.473 12.8584 207.598 12.5291 207.832C11.4783 208.571 11.1852 209.998 11.1792 211.282C11.0722 210.819 11.163 210.336 11.1589 209.867C11.1548 209.399 11.0275 208.857 10.6253 208.609C10.3771 208.475 10.0983 208.41 9.81686 208.419C9.34397 208.401 8.81853 208.449 8.49506 208.795C8.09086 209.223 8.20005 209.943 8.54761 210.411C8.89516 210.88 9.42661 211.182 9.91593 211.506C10.307 211.739 10.6407 212.057 10.8921 212.437C10.9224 212.49 10.9468 212.546 10.9649 212.604H13.9174C14.5832 212.267 15.2004 211.841 15.7524 211.339V211.341Z" fill="#EFEFEF"/>
<rect y="214.177" width="247" height="0.498342" fill="#2F2E41"/>
<path fill-rule="evenodd" clip-rule="evenodd" d="M234.943 23.8266C234.943 23.8266 209.158 22.2708 212.196 40.3387C212.196 40.3387 211.584 43.5326 214.487 44.9811C214.487 44.9811 214.533 43.6429 217.133 44.0991C218.058 44.2525 218.999 44.2977 219.935 44.2337C221.197 44.1507 222.399 43.6595 223.358 42.8342V42.8342C223.358 42.8342 230.607 39.8392 233.424 27.9942C233.424 27.9942 235.509 25.4098 235.427 24.745L231.076 26.6038C231.076 26.6038 232.564 29.7427 231.382 32.3507C231.382 32.3507 231.241 26.716 230.405 26.8386C230.236 26.8632 228.145 27.9255 228.145 27.9255C228.145 27.9255 230.702 33.3917 228.773 37.367C228.773 37.367 229.504 30.6299 227.345 28.3207L224.283 30.1091C224.283 30.1091 227.272 35.7562 225.245 40.3649C225.245 40.3649 225.765 33.297 223.637 30.544L220.863 32.7089C220.863 32.7089 223.671 38.2731 221.959 42.0956C221.959 42.0956 221.735 33.8701 220.262 33.2486C220.262 33.2486 217.834 35.3922 217.463 36.2679C217.463 36.2679 219.386 40.3102 218.192 42.4415C218.192 42.4415 217.46 36.96 216.86 36.9294C216.86 36.9294 214.441 40.5612 214.189 43.054C214.189 43.054 214.294 39.3516 216.275 36.5865C216.275 36.5865 213.935 36.9877 212.569 38.5021C212.569 38.5021 212.946 35.936 216.872 35.7094C216.872 35.7094 218.871 32.9533 219.404 32.788C219.404 32.788 215.503 32.4596 213.136 33.5108C213.136 33.5108 215.218 31.0886 220.121 32.1909L222.862 29.9523C222.862 29.9523 217.723 29.2509 215.543 30.0259C215.543 30.0259 218.051 27.8823 223.6 29.4441L226.583 27.6617C226.583 27.6617 222.201 26.7184 219.591 27.0493C219.591 27.0493 222.348 25.5641 227.458 27.1749L229.602 26.2171C229.602 26.2171 226.393 25.5863 225.453 25.4853C224.512 25.3843 224.464 25.1271 224.464 25.1271C226.497 24.7881 228.584 25.0203 230.493 25.7978C230.493 25.7978 235.02 24.1115 234.943 23.8266Z" fill="#3F90F6"/>
<path d="M199.614 14.2612C199.614 14.2612 187.977 13.5598 189.337 21.724C189.337 21.724 189.063 23.1665 190.372 23.8217C190.372 23.8217 190.393 23.2092 191.569 23.4205C191.987 23.4908 192.411 23.5114 192.834 23.4818C193.405 23.444 193.948 23.2202 194.38 22.8447V22.8447C194.38 22.8447 197.657 21.4912 198.931 16.1383C198.931 16.1383 199.871 14.9717 199.834 14.6715L197.868 15.5105C197.868 15.5105 198.538 16.9284 198.012 18.1073C198.012 18.1073 197.947 15.5622 197.571 15.6208C197.494 15.6208 196.548 16.1134 196.548 16.1134C196.548 16.1134 197.705 18.5846 196.833 20.3793C196.833 20.3793 197.163 17.3353 196.187 16.291L194.802 17.112C194.802 17.112 196.153 19.6628 195.237 21.7454C195.237 21.7454 195.473 18.5515 194.512 17.3082L193.259 18.2882C193.259 18.2882 194.527 20.8023 193.755 22.53C193.755 22.53 193.651 18.8123 192.986 18.5307C192.986 18.5307 191.89 19.4983 191.722 19.8965C191.722 19.8965 192.591 21.7339 192.052 22.6863C192.052 22.6863 191.722 20.2088 191.44 20.1959C191.44 20.1959 190.347 21.8379 190.233 22.952C190.288 21.9127 190.613 20.9057 191.177 20.0306C190.546 20.1501 189.964 20.4514 189.502 20.8973C189.502 20.8973 189.673 19.7367 191.446 19.6357C191.446 19.6357 192.365 18.3895 192.591 18.3128C192.591 18.3128 190.828 18.1659 189.759 18.6412C189.759 18.6412 190.699 17.5479 192.913 18.0441L194.138 17.0335C194.138 17.0335 191.815 16.7242 190.829 17.0652C190.829 17.0652 191.962 16.0975 194.47 16.8019L195.818 15.9965C195.818 15.9965 193.837 15.571 192.658 15.7229C192.658 15.7229 193.904 15.0521 196.213 15.7776L197.178 15.3458C197.178 15.3458 195.727 15.0609 195.3 15.0149C194.874 14.9689 194.853 14.8526 194.853 14.8526C195.773 14.6997 196.716 14.8057 197.579 15.1589C197.579 15.1589 199.65 14.3888 199.614 14.2612Z" fill="#7A7A7A"/>
<path d="M20.1614 138.898C20.1614 138.898 8.52464 138.196 9.8842 146.361C9.8842 146.361 9.61053 147.803 10.9192 148.458C10.9192 148.458 10.9405 147.846 12.1165 148.057C12.5341 148.127 12.9586 148.148 13.3811 148.118C13.9523 148.081 14.4955 147.857 14.9276 147.481V147.481C14.9276 147.481 18.2041 146.128 19.478 140.775C19.478 140.775 20.4181 139.608 20.3811 139.308L18.4151 140.147C18.4151 140.147 19.0859 141.565 18.5591 142.744C18.5591 142.744 18.4948 140.199 18.1182 140.257C18.0416 140.257 17.0952 140.75 17.0952 140.75C17.0952 140.75 18.2528 143.221 17.3801 145.016C17.3801 145.016 17.7107 141.972 16.734 140.928L15.3498 141.749C15.3498 141.749 16.7003 144.299 15.7847 146.382C15.7847 146.382 16.0206 143.188 15.0589 141.945L13.8063 142.925C13.8063 142.925 15.0742 145.439 14.3025 147.167C14.3025 147.167 14.1985 143.449 13.5338 143.167C13.5338 143.167 12.4375 144.135 12.2689 144.533C12.2689 144.533 13.1386 146.371 12.5998 147.323C12.5998 147.323 12.2689 144.845 11.9873 144.833C11.9873 144.833 10.894 146.475 10.7807 147.589C10.8355 146.549 11.1606 145.542 11.724 144.667C11.0932 144.787 10.5109 145.088 10.0489 145.534C10.0489 145.534 10.2205 144.373 11.9936 144.272C11.9936 144.272 12.9123 143.026 13.1389 142.949C13.1389 142.949 11.3751 142.803 10.3062 143.278C10.3062 143.278 11.2462 142.185 13.4604 142.681L14.6854 141.67C14.6854 141.67 12.362 141.361 11.3768 141.702C11.3768 141.702 12.5097 140.734 15.0179 141.439L16.3654 140.633C16.3654 140.633 14.3841 140.208 13.2051 140.36C13.2051 140.36 14.4514 139.689 16.7606 140.414L17.7252 139.982C17.7252 139.982 16.2748 139.698 15.8479 139.652C15.421 139.606 15.4007 139.489 15.4007 139.489C16.32 139.336 17.2637 139.442 18.1261 139.796C18.1261 139.796 20.1972 139.025 20.1614 138.898Z" fill="#7A7A7A"/>
<defs>
<linearGradient id="paint0_linear" x1="57.4605" y1="115.24" x2="57.4605" y2="114.965" gradientUnits="userSpaceOnUse">
<stop stop-color="#808080" stop-opacity="0.251"/>
<stop offset="0.54" stop-color="#808080" stop-opacity="0.122"/>
<stop offset="1" stop-color="#808080" stop-opacity="0.102"/>
</linearGradient>
</defs>
</svg>
