<svg width="512" height="512" viewBox="0 0 512 512" fill="none" xmlns="http://www.w3.org/2000/svg">
<g clip-path="url(#clip0)">
<path d="M3.125 493.792L158.911 338.005C126.553 302.078 106.666 254.709 106.666 202.666C106.667 90.917 197.583 0 309.333 0C421.083 0 512 90.917 512 202.667C512 314.417 421.083 405.334 309.333 405.334C257.29 405.334 209.922 385.447 173.994 353.089L18.208 508.875C16.125 510.958 13.395 512 10.666 512C7.93699 512 5.20799 510.958 3.12399 508.875C-1.04201 504.708 -1.042 497.958 3.125 493.792ZM309.333 384C409.312 384 490.666 302.656 490.666 202.667C490.666 102.678 409.312 21.333 309.333 21.333C209.354 21.333 128 102.677 128 202.667C128 302.657 209.354 384 309.333 384Z" fill="black"/>
</g>
<defs>
<clipPath id="clip0">
<rect width="512" height="512" fill="white" transform="matrix(-1 0 0 1 512 0)"/>
</clipPath>
</defs>
</svg>
