<svg width="728" height="728" viewBox="0 0 728 728" fill="none" xmlns="http://www.w3.org/2000/svg">
<rect x="20" y="20" width="688" height="688" rx="100" stroke="black" stroke-width="40"/>
<path d="M598.667 513.333H541.856C532.619 482.592 504.373 460 470.667 460C436.961 460 408.736 482.592 399.478 513.333H129.333C117.557 513.333 108 522.891 108 534.667C108 546.443 117.557 556 129.333 556H399.477C408.714 586.741 436.96 609.333 470.666 609.333C504.372 609.333 532.597 586.741 541.855 556H598.666C610.463 556 619.999 546.443 619.999 534.667C619.999 522.891 610.464 513.333 598.667 513.333ZM470.667 566.667C453.024 566.667 438.667 552.31 438.667 534.667C438.667 517.024 453.024 502.667 470.667 502.667C488.31 502.667 502.667 517.024 502.667 534.667C502.667 552.31 488.309 566.667 470.667 566.667Z" fill="black"/>
<path d="M598.667 172H541.856C532.597 141.259 504.373 118.667 470.667 118.667C436.961 118.667 408.736 141.259 399.477 172H129.333C117.557 172 108 181.557 108 193.333C108 205.109 117.557 214.666 129.333 214.666H399.477C408.736 245.408 436.96 268 470.667 268C504.374 268 532.598 245.408 541.856 214.667H598.667C610.464 214.667 620 205.11 620 193.334C620 181.558 610.464 172 598.667 172ZM470.667 225.333C453.024 225.333 438.667 210.976 438.667 193.333C438.667 175.69 453.024 161.333 470.667 161.333C488.31 161.333 502.667 175.69 502.667 193.333C502.667 210.976 488.309 225.333 470.667 225.333Z" fill="black"/>
<path d="M598.667 342.667H328.523C319.264 311.926 291.04 289.334 257.334 289.334C223.628 289.334 195.403 311.926 186.145 342.667H129.333C117.557 342.667 108 352.224 108 364C108 375.776 117.557 385.333 129.333 385.333H186.144C195.403 416.074 223.627 438.666 257.333 438.666C291.039 438.666 319.264 416.074 328.522 385.333H598.666C610.463 385.333 619.999 375.776 619.999 364C620 352.224 610.464 342.667 598.667 342.667ZM257.333 396C239.69 396 225.333 381.643 225.333 364C225.333 346.357 239.69 332 257.333 332C274.976 332 289.333 346.357 289.333 364C289.333 381.643 274.976 396 257.333 396Z" fill="black"/>
</svg>
