<svg width="728" height="728" viewBox="0 0 728 728" fill="none" xmlns="http://www.w3.org/2000/svg">
<path d="M364 108C222.84 108 108 222.84 108 364C108 505.16 222.84 620 364 620C505.16 620 620 505.16 620 364C620 222.84 505.16 108 364 108ZM364 583.429C243.003 583.429 144.571 484.997 144.571 364C144.571 243.003 243.003 144.571 364 144.571C484.997 144.571 583.429 243.003 583.429 364C583.429 484.997 484.997 583.429 364 583.429Z" fill="black"/>
<path d="M364 242.095C353.9 242.095 345.714 250.281 345.714 260.381V467.619C345.714 477.719 353.9 485.905 364 485.905C374.1 485.905 382.286 477.719 382.286 467.619V260.381C382.286 250.281 374.1 242.095 364 242.095Z" fill="black"/>
<path d="M467.619 345.714H260.381C250.281 345.714 242.095 353.9 242.095 364C242.095 374.1 250.281 382.286 260.381 382.286H467.619C477.719 382.286 485.905 374.1 485.905 364C485.905 353.9 477.719 345.714 467.619 345.714Z" fill="black"/>
<rect x="20" y="20" width="688" height="688" rx="100" stroke="black" stroke-width="40"/>
</svg>
